# xmcd CD database file
#
# Track frame offsets:
#	150
#	12880
#	24727
#	38962
#	53352
#	72535
#	83527
#	99102
#	113357
#	129577
#	140397
#	154485
#	168625
#	180775
#	195245
#	209535
#
# Disc length: 3182 seconds
#
# Revision: 1
# Processed by: cddbd v1.5PL3 Copyright (c) Steve Scherf et al.
# Submitted via: CDex 1.50
#
DISCID=c50c6c10
DTITLE=宗次郎 - 世界のうた こころのうた　Disc2
DYEAR=1990
DGENRE=New Age
TTITLE0=アニー・ローリー
TTITLE1=春風
TTITLE2=峠のわが家
TTITLE3=オールド・ブラック・ジョー
TTITLE4=懐かしきケンタッキーのわが家
TTITLE5=ともしび
TTITLE6=ローレライ
TTITLE7=まき人羊を
TTITLE8=シューベルトの子守歌
TTITLE9=トロイメライ
TTITLE10=モーツァルトの子守歌
TTITLE11=野バラ（ウェルナー）
TTITLE12=アヴェ・マリア（グノー）
TTITLE13=ラルゴ（ヘンデル）
TTITLE14=幻想序曲ロメオとジュリエットより「愛の主題」
TTITLE15=家路（ドヴォルザーク新世界より）
EXTD=YEAR: 1990
EXTT0=
EXTT1=
EXTT2=
EXTT3=
EXTT4=
EXTT5=
EXTT6=
EXTT7=
EXTT8=
EXTT9=
EXTT10=
EXTT11=
EXTT12=
EXTT13=
EXTT14=
EXTT15=
PLAYORDER=
